<mxfile host="app.diagrams.net" modified="2023-07-30T21:32:00.595Z" agent="Mozilla/5.0 (Windows NT 10.0; Win64; x64) AppleWebKit/537.36 (KHTML, like Gecko) Chrome/115.0.0.0 Safari/537.36" version="21.6.6" etag="7oZrtMaDUo8JfSTI-a-S" type="github">
  <diagram name="Страница 1" id="3U_22_4ezOb_50vTTji5">
    <mxGraphModel>
      <root>
        <mxCell id="0" />
        <mxCell id="1" parent="0" />
      </root>
    </mxGraphModel>
  </diagram>
</mxfile>
